<svg version="1.2" xmlns="http://www.w3.org/2000/svg" viewBox="0 0 3860 1201" width="3860" height="1201">
&#x9;<defs>
&#x9;&#x9;<image width="2293" height="398" id="img1"></image>
&#x9;&#x9;<image width="1700" height="400" id="img2"></image>
&#x9;</defs>
&#x9;
&#x9;<use id="Layer 3" href="#img1" x="1351" y="600"></use>
&#x9;<use id="Layer 2" href="#img2" x="1355" y="123"></use>
&#x9;<path fill-rule="evenodd" class="s0" d="m171.74 115.9l753.47-92.52c107.39-13.18 205.14 63.18 218.32 170.57l82.37 670.84c13.19 107.39-63.18 205.14-170.57 218.32l-753.48 92.52c-107.39 13.19-205.13-63.18-218.32-170.57l-82.37-670.84c-13.18-107.39 63.19-205.14 170.58-218.32z"></path>
&#x9;<path class="s1" d="m296.23 804.59v172.26h-105.88v-561.02h100.35v40.3c21.33-21.34 62.42-47.41 129.59-47.41 128 0 211.76 90.08 211.76 217.29 0 122.48-82.18 219.67-216.51 219.67-56.1 0-97.98-22.92-119.31-41.09zm-3.16-177c0 71.91 46.62 124.06 116.94 124.06 71.91 0 116.16-52.15 116.16-124.06 0-71.9-46.62-124.84-116.95-124.84-71.9 0-116.15 52.94-116.15 124.84z"></path>
&#x9;<path class="s1" d="m1091.65 562.57h-301.85c5.53 56.1 45.04 90.08 105.09 90.08 53.73 0 91.97-29 114.09-63.77l78.23 47.41c-31.7 50.55-89.59 110.39-192.32 110.39-128 0-216.5-82.97-216.5-217.3 0-126.42 85.34-219.66 207.81-219.66 127.22 0 207.03 82.96 207.03 209.39 0 10.27 0 25.29-1.58 43.46zm-206.24-163.57c-53.73 0-87.71 35.56-93.24 83.76h191.22c-4.74-47.41-40.3-83.76-97.98-83.76z"></path>
</svg>